<?xml version="1.0" encoding="utf-8"?>
<svg version="1.1" xmlns:xlink="http://www.w3.org/1999/xlink" width="68px" height="25px" xmlns="http://www.w3.org/2000/svg">
  <defs>
    <mask fill="white" id="clip2">
      <path d="M 0 20  L 0 5  C 0 2.19999999999999  2.19999999999999 0  5 0  L 30 0  L 63 0  C 65.8 0  68 2.19999999999999  68 5  L 68 20  C 68 22.8  65.8 25  63 25  L 5 25  C 2.19999999999999 25  0 22.8  0 20  Z " fill-rule="evenodd" />
    </mask>
  </defs>
  <g transform="matrix(1 0 0 1 -125 -429 )">
    <path d="M 0 20  L 0 5  C 0 2.19999999999999  2.19999999999999 0  5 0  L 30 0  L 63 0  C 65.8 0  68 2.19999999999999  68 5  L 68 20  C 68 22.8  65.8 25  63 25  L 5 25  C 2.19999999999999 25  0 22.8  0 20  Z " fill-rule="nonzero" fill="#ffffff" stroke="none" transform="matrix(1 0 0 1 125 429 )" />
    <path d="M 0 20  L 0 5  C 0 2.19999999999999  2.19999999999999 0  5 0  L 30 0  L 63 0  C 65.8 0  68 2.19999999999999  68 5  L 68 20  C 68 22.8  65.8 25  63 25  L 5 25  C 2.19999999999999 25  0 22.8  0 20  Z " stroke-width="2" stroke="#797979" fill="none" transform="matrix(1 0 0 1 125 429 )" mask="url(#clip2)" />
  </g>
</svg>