<?xml version="1.0" encoding="utf-8"?>
<svg version="1.1" xmlns:xlink="http://www.w3.org/1999/xlink" width="48px" height="34px" xmlns="http://www.w3.org/2000/svg">
  <defs>
    <mask fill="white" id="clip5">
      <path d="M 0 29.75  L 0 4.25  C 0 1.86999999999999  1.38947368421056 0  3.15789473684211 0  L 44.8421052631579 0  C 46.6105263157894 0  48 1.86999999999999  48 4.25  C 48 4.25  48 27.37  48 29.75  C 48 32.13  46.6105263157894 34  44.8421052631579 34  L 30.9473684210526 34  L 3.15789473684211 34  C 1.38947368421056 34  0 32.13  0 29.75  Z " fill-rule="evenodd" />
    </mask>
  </defs>
  <g transform="matrix(1 0 0 1 -639 -233 )">
    <path d="M 0 29.75  L 0 4.25  C 0 1.86999999999999  1.38947368421056 0  3.15789473684211 0  L 44.8421052631579 0  C 46.6105263157894 0  48 1.86999999999999  48 4.25  C 48 4.25  48 27.37  48 29.75  C 48 32.13  46.6105263157894 34  44.8421052631579 34  L 30.9473684210526 34  L 3.15789473684211 34  C 1.38947368421056 34  0 32.13  0 29.75  Z " fill-rule="nonzero" fill="#81d3f8" stroke="none" transform="matrix(1 0 0 1 639 233 )" />
    <path d="M 0 29.75  L 0 4.25  C 0 1.86999999999999  1.38947368421056 0  3.15789473684211 0  L 44.8421052631579 0  C 46.6105263157894 0  48 1.86999999999999  48 4.25  C 48 4.25  48 27.37  48 29.75  C 48 32.13  46.6105263157894 34  44.8421052631579 34  L 30.9473684210526 34  L 3.15789473684211 34  C 1.38947368421056 34  0 32.13  0 29.75  Z " stroke-width="2" stroke="#797979" fill="none" transform="matrix(1 0 0 1 639 233 )" mask="url(#clip5)" />
  </g>
</svg>