<?xml version="1.0" encoding="utf-8"?>
<svg version="1.1" xmlns:xlink="http://www.w3.org/1999/xlink" width="12px" height="12px" viewBox="431 358.5  12 12" xmlns="http://www.w3.org/2000/svg">
  <path d="M 437 358.5  C 440.36 358.5  443 361.14  443 364.5  C 443 367.86  440.36 370.5  437 370.5  C 433.64 370.5  431 367.86  431 364.5  C 431 361.14  433.64 358.5  437 358.5  Z " fill-rule="nonzero" fill="#ffffff" stroke="none" />
  <path d="M 437 359  C 440.08 359  442.5 361.42  442.5 364.5  C 442.5 367.58  440.08 370  437 370  C 433.92 370  431.5 367.58  431.5 364.5  C 431.5 361.42  433.92 359  437 359  Z " stroke-width="1" stroke="#797979" fill="none" />
  <path d="M 437 367.5  C 435.32 367.5  434 366.18  434 364.5  C 434 362.82  435.32 361.5  437 361.5  C 438.68 361.5  440 362.82  440 364.5  C 440 366.18  438.68 367.5  437 367.5  " fill-rule="nonzero" fill="#797979" stroke="none" />
</svg>